<?xml version="1.0" encoding="UTF-8"?>
<svg width="20px" height="20px" viewBox="0 0 20 20" version="1.1" xmlns="http://www.w3.org/2000/svg" xmlns:xlink="http://www.w3.org/1999/xlink">
    <!-- Generator: Sketch 47.1 (45422) - http://www.bohemiancoding.com/sketch -->
    <title>ExitFullScreen</title>
    <desc>Created with Sketch.</desc>
    <defs></defs>
    <g id="图标" stroke="none" stroke-width="1" fill="none" fill-rule="evenodd" stroke-linecap="round">
        <g id="ExitFullScreen" stroke="#FFFFFF">
            <g id="Group-2">
                <g id="Group" transform="translate(3.500000, 16.500000) scale(-1, -1) translate(-3.500000, -16.500000) translate(0.000000, 13.000000)">
                    <path d="M5.5,7 L0.5,7 L0.5,7 C0.223857625,7 0,6.77614237 0,6.5 L0,1.5 L0,1.5" id="Rectangle-43"></path>
                    <path d="M0.572940063,6.51739197 L6.22979431,0.860537719" id="Line"></path>
                </g>
                <g id="Group" transform="translate(16.500000, 16.500000) scale(1, -1) translate(-16.500000, -16.500000) translate(13.000000, 13.000000)">
                    <path d="M5.5,7 L0.5,7 L0.5,7 C0.223857625,7 0,6.77614237 0,6.5 L0,1.5 L0,1.5" id="Rectangle-43"></path>
                    <path d="M0.572940063,6.51739197 L6.22979431,0.860537719" id="Line"></path>
                </g>
                <g id="Group" transform="translate(3.500000, 3.500000) scale(-1, 1) translate(-3.500000, -3.500000) ">
                    <path d="M5.5,7 L0.5,7 L0.5,7 C0.223857625,7 0,6.77614237 0,6.5 L0,1.5 L0,1.5" id="Rectangle-43"></path>
                    <path d="M0.572940063,6.51739197 L6.22979431,0.860537719" id="Line"></path>
                </g>
                <g id="Group" transform="translate(13.000000, 0.000000)">
                    <path d="M5.5,7 L0.5,7 C0.223857625,7 0,6.77614237 0,6.5 L0,1.5" id="Rectangle-43"></path>
                    <path d="M0.572940063,6.51739197 L6.22979431,0.860537719" id="Line"></path>
                </g>
            </g>
        </g>
    </g>
</svg>