<?xml version="1.0" encoding="UTF-8"?>
<svg width="20px" height="20px" viewBox="0 0 20 20" version="1.1" xmlns="http://www.w3.org/2000/svg" xmlns:xlink="http://www.w3.org/1999/xlink">
    <!-- Generator: Sketch 47.1 (45422) - http://www.bohemiancoding.com/sketch -->
    <title>FullScreen</title>
    <desc>Created with Sketch.</desc>
    <defs></defs>
    <g id="图标" stroke="none" stroke-width="1" fill="none" fill-rule="evenodd" stroke-linecap="round">
        <g id="FullScreen" stroke="#999999">
            <g id="Group-19" transform="translate(1.000000, 0.000000)">
                <g id="Group-2">
                    <g id="Group" transform="translate(0.000000, 12.700000)">
                        <path d="M4.95,6.3 L0.45,6.3 L0.45,6.3 C0.201471863,6.3 0,6.09852814 0,5.85 L0,1.35 L0,1.35" id="Rectangle-43"></path>
                        <path d="M0.515646056,5.86565277 L5.60681488,0.774483947" id="Line"></path>
                    </g>
                    <g id="Group" transform="translate(15.000000, 16.200000) scale(-1, 1) translate(-15.000000, -16.200000) translate(12.000000, 12.700000)">
                        <path d="M4.95,6.3 L0.45,6.3 L0.45,6.3 C0.201471863,6.3 0,6.09852814 0,5.85 L0,1.35 L0,1.35" id="Rectangle-43"></path>
                        <path d="M0.515646056,5.86565277 L5.60681488,0.774483947" id="Line"></path>
                    </g>
                    <g id="Group" transform="translate(3.000000, 3.800000) scale(1, -1) translate(-3.000000, -3.800000) translate(0.000000, 0.300000)">
                        <path d="M4.95,6.3 L0.45,6.3 L0.45,6.3 C0.201471863,6.3 0,6.09852814 0,5.85 L0,1.35 L0,1.35" id="Rectangle-43"></path>
                        <path d="M0.515646056,5.86565277 L5.60681488,0.774483947" id="Line"></path>
                    </g>
                    <g id="Group" transform="translate(15.000000, 3.800000) scale(-1, -1) translate(-15.000000, -3.800000) translate(12.000000, 0.300000)">
                        <path d="M4.95,6.3 L0.45,6.3 L0.45,6.3 C0.201471863,6.3 0,6.09852814 0,5.85 L0,1.35 L0,1.35" id="Rectangle-43"></path>
                        <path d="M0.515646056,5.86565277 L5.60681488,0.774483947" id="Line"></path>
                    </g>
                </g>
            </g>
        </g>
    </g>
</svg>